<?xml version="1.0" standalone="no"?>
<!DOCTYPE svg PUBLIC "-//W3C//DTD SVG 20010904//EN"
 "http://www.w3.org/TR/2001/REC-SVG-20010904/DTD/svg10.dtd">
<svg version="1.0" xmlns="http://www.w3.org/2000/svg"
 width="512.000000pt" height="512.000000pt" viewBox="0 0 512.000000 512.000000"
 preserveAspectRatio="xMidYMid meet">
<metadata>
Created by potrace 1.16, written by Peter Selinger 2001-2019
</metadata>
<g transform="translate(0.000000,512.000000) scale(0.100000,-0.100000)"
fill="#000000" stroke="none">
<path d="M0 2560 l0 -2560 2560 0 2560 0 0 2560 0 2560 -2560 0 -2560 0 0
-2560z m2213 2006 c197 -95 282 -337 184 -531 -33 -65 -121 -149 -190 -181
-55 -26 -73 -29 -162 -29 -93 0 -105 2 -167 33 -85 42 -168 129 -199 209 -16
43 -22 80 -22 143 -1 109 25 179 95 255 99 109 165 137 308 132 79 -3 105 -8
153 -31z m1053 -803 c-9 -499 -18 -723 -28 -723 -17 0 -435 -183 -603 -264
-179 -87 -431 -221 -439 -235 -7 -10 682 -630 984 -887 l81 -69 -5 -85 c-3
-47 -8 -267 -12 -490 -4 -223 -9 -424 -13 -447 l-6 -43 -230 201 c-859 751
-1300 1183 -1329 1302 -3 15 1 273 9 575 15 546 15 547 40 597 101 207 610
524 1334 831 97 41 185 79 196 84 11 5 22 9 24 9 2 1 1 -160 -3 -356z"/>
</g>
</svg>
