<?xml version="1.0" standalone="no"?>
<!DOCTYPE svg PUBLIC "-//W3C//DTD SVG 20010904//EN"
 "http://www.w3.org/TR/2001/REC-SVG-20010904/DTD/svg10.dtd">
<svg version="1.0" xmlns="http://www.w3.org/2000/svg"
 width="300.000000pt" height="300.000000pt" viewBox="0 0 300.000000 300.000000"
 preserveAspectRatio="xMidYMid meet">
<metadata>
Created by potrace 1.10, written by Peter Selinger 2001-2011
</metadata>
<g transform="translate(0.000000,300.000000) scale(0.100000,-0.100000)"
fill="#000000" stroke="none">
<path d="M1145 2719 c-22 -5 -53 -16 -70 -25 -40 -22 -95 -75 -95 -91 0 -7 -4
-13 -9 -13 -15 0 -34 -89 -29 -142 2 -29 12 -70 22 -90 21 -44 92 -118 112
-118 8 0 14 -5 14 -11 0 -5 4 -8 9 -5 5 4 21 2 35 -4 86 -32 186 -1 259 80
129 143 55 371 -135 418 -53 13 -57 13 -113 1z m122 -34 c54 -16 112 -65 140
-118 26 -47 23 -151 -4 -203 -41 -78 -116 -124 -203 -124 -127 0 -229 101
-230 226 0 99 79 202 171 224 51 12 71 11 126 -5z"/>
<path d="M1785 2392 c-49 -20 -92 -39 -95 -42 -3 -3 -36 -19 -75 -35 -110 -45
-318 -157 -410 -219 -140 -95 -192 -145 -225 -213 -18 -38 -20 -70 -26 -345
-7 -344 -6 -356 60 -445 40 -54 293 -310 431 -436 198 -181 380 -338 408 -354
67 -38 74 -7 78 345 l4 293 -55 52 c-30 29 -75 68 -100 87 -25 19 -58 47 -75
62 -16 15 -41 37 -55 48 -255 217 -313 272 -305 290 6 17 117 80 139 80 8 0
16 4 18 8 4 9 161 84 168 80 3 -2 19 6 35 18 17 11 53 29 80 39 28 9 54 22 60
26 5 5 16 9 25 9 25 0 58 41 64 81 3 19 6 158 7 307 1 288 -1 303 -45 301 -11
0 -61 -17 -111 -37z m129 -174 c-2 -106 -6 -246 -8 -312 l-2 -118 -155 -67
c-343 -149 -598 -298 -702 -411 -81 -87 -71 -103 12 -21 38 38 101 90 141 117
39 27 77 53 84 58 10 7 68 -39 212 -170 110 -99 248 -222 308 -274 l108 -95
-6 -100 c-3 -55 -7 -196 -7 -313 l-2 -213 -21 19 c-12 10 -95 83 -186 163
-374 326 -671 613 -706 681 -12 23 -14 49 -10 112 3 44 8 191 12 326 5 210 9
250 24 281 42 82 213 204 465 331 144 73 419 198 437 198 4 0 5 -87 2 -192z"/>
</g>
</svg>
