<?xml version="1.0" standalone="no"?>
<!DOCTYPE svg PUBLIC "-//W3C//DTD SVG 20010904//EN"
 "http://www.w3.org/TR/2001/REC-SVG-20010904/DTD/svg10.dtd">
<svg version="1.0" xmlns="http://www.w3.org/2000/svg"
 width="300.000000pt" height="300.000000pt" viewBox="0 0 300.000000 300.000000"
 preserveAspectRatio="xMidYMid meet">
<metadata>
Created by potrace 1.10, written by Peter Selinger 2001-2011
</metadata>
<g transform="translate(0.000000,300.000000) scale(0.050000,-0.050000)"
fill="#ffffff" stroke="none">
<path d="M0 3000 l0 -3000 3000 0 3000 0 0 3000 0 3000 -3000 0 -3000 0 0
-3000z m2626 2343 c37 -24 75 -36 84 -28 9 8 11 5 4 -7 -7 -13 6 -40 29 -60
172 -153 153 -491 -36 -662 -421 -379 -1036 210 -672 644 142 169 416 221 591
113z m1203 -1148 l-15 -629 -182 -76 c-272 -114 -718 -328 -733 -352 -8 -12
-21 -22 -31 -22 -52 -4 -126 -43 -115 -61 7 -12 4 -15 -8 -8 -38 23 -173 -68
-141 -96 14 -13 130 -118 256 -233 127 -115 343 -308 480 -429 138 -120 282
-247 320 -282 39 -35 90 -80 114 -100 42 -35 45 -53 45 -297 0 -356 -22 -1010
-34 -1010 -5 0 -41 27 -79 60 -38 34 -79 55 -92 47 -13 -7 -17 -6 -9 3 21 23
-45 92 -73 76 -12 -7 -16 -6 -8 3 17 19 -502 483 -532 474 -12 -3 -16 0 -9 7
20 19 -306 311 -330 296 -10 -7 -13 -3 -6 9 16 26 -322 338 -354 328 -13 -3
-16 1 -8 9 21 21 -86 130 -111 114 -11 -7 -14 -3 -8 8 7 12 -32 72 -86 134
-55 63 -108 130 -119 150 -38 71 -6 1314 36 1425 11 29 59 92 105 140 47 48
83 96 80 107 -3 11 1 13 9 5 21 -21 71 25 56 50 -7 12 -4 15 8 8 11 -7 79 27
151 75 71 48 167 108 212 133 59 34 75 52 57 65 -17 12 -13 14 12 6 22 -8 85
14 160 54 108 58 524 255 708 335 36 16 65 35 65 43 0 8 15 9 33 2 24 -9 29
-6 17 14 -10 16 -8 21 5 13 11 -7 51 0 88 15 88 38 82 96 66 -613z"/>
</g>
</svg>
